<svg xmlns="http://www.w3.org/2000/svg" viewBox="2 1.00068 12 14">
  <path d="M 5 5.372 v 0.878 c 0 0.414 0.336 0.75 0.75 0.75 h 4.5 a 0.75 0.75 0 0 0 0.75 -0.75 v -0.878 a 2.25 2.25 0 1 1 1.5 0 v 0.878 a 2.25 2.25 0 0 1 -2.25 2.25 h -1.5 v 2.128 a 2.251 2.251 0 1 1 -1.5 0 V 8.5 h -1.5 A 2.25 2.25 0 0 1 3.5 6.25 v -0.878 a 2.25 2.25 0 1 1 1.5 0 Z M 5 3.25 a 0.75 0.75 0 1 0 -1.5 0 a 0.75 0.75 0 0 0 1.5 0 Z m 6.75 0.75 a 0.75 0.75 0 1 0 0 -1.5 a 0.75 0.75 0 0 0 0 1.5 Z m -3 8.75 a 0.75 0.75 0 1 0 -1.5 0 a 0.75 0.75 0 0 0 1.5 0 Z" fill="#2196F3"/>
</svg>